#!OML:ASF F:\VICON\USERDATA\INSTALL\rory3\rory3.ASF
:FULLY-SPECIFIED
:DEGREES
356
root 2.94016 16.7305 -0.161957 15.0238 4.75202 10.2893
lowerback -6.13881 1.53204 -0.245555
upperback -2.72745 2.16836 -6.8951
thorax 0.881643 1.07293 -6.90297
lowerneck -1.91658 14.4141 5.41158
upperneck 47.2258 24.0379 -2.01455
head 19.8108 10.5589 2.07719
rclavicle 4.96962e-017 6.75868e-015
rhumerus -37.1113 3.41053 -93.1465
rradius 42.2973
rwrist -38.1318
rhand -8.59636 -50.4256
rfingers 7.12502
rthumb 17.3349 -79.6725
lclavicle 4.96962e-017 6.75868e-015
lhumerus -28.5553 -19.6656 81.9814
lradius 40.6956
lwrist 74.1808
lhand -36.961 -15.5027
lfingers 7.12502
lthumb -10.037 14.2379
rfemur -51.2621 24.3531 -5.81257
rtibia 73.8737
rfoot 3.39376 9.66625
rtoes -42.3434
lfemur -33.0861 -6.33222 -35.5251
ltibia 39.1913
lfoot -16.8321 10.5083
ltoes 5.65552
357
root 2.9395 16.7277 -0.160866 15.0067 4.77733 10.3341
lowerback -6.11255 1.5318 -0.289681
upperback -2.73623 2.16891 -6.89444
thorax 0.85638 1.07296 -6.87743
lowerneck -1.95313 14.4073 5.38041
upperneck 47.3178 24.008 -1.91383
head 19.85 10.5479 2.13027
rclavicle -2.18166e-014 2.66371e-014
rhumerus -37.1054 3.40302 -93.114
rradius 42.2142
rwrist -38.1871
rhand -8.70317 -50.2747
rfingers 7.12502
rthumb 17.2322 -79.5307
lclavicle -2.18166e-014 2.66371e-014
lhumerus -28.6729 -19.7796 82.062
lradius 40.7817
lwrist 74.2093
lhand -36.8841 -15.1664
lfingers 7.12502
lthumb -9.96281 14.5778
rfemur -51.2437 24.333 -5.84784
rtibia 73.8932
rfoot 3.52551 9.63885
rtoes -42.0017
lfemur -33.0212 -6.30378 -35.5975
ltibia 39.1966
lfoot -16.8013 10.5908
ltoes 4.65414
358
root 2.93913 16.7275 -0.158145 14.9697 4.83328 10.2844
lowerback -6.20609 1.53707 -0.242484
upperback -2.67867 2.18023 -6.86726
thorax 0.970263 1.08095 -6.87163
lowerneck -1.9771 14.3764 5.32524
upperneck 47.3187 23.919 -1.82535
head 19.8146 10.5153 2.16016
rclavicle 5.63058e-014 -1.04561e-013
rhumerus -37.0316 3.45344 -93.1255
rradius 42.2188
rwrist -38.4757
rhand -8.16203 -49.9543
rfingers 7.12502
rthumb 17.7529 -79.1639
lclavicle 5.63058e-014 -1.04561e-013
lhumerus -28.6557 -19.8494 82.089
lradius 40.7874
lwrist 74.3064
lhand -36.826 -15.0369
lfingers 7.12502
lthumb -9.90677 14.71
rfemur -51.1517 24.3378 -5.75016
rtibia 73.8853
rfoot 3.94662 9.23596
rtoes -40.5129
lfemur -32.9628 -6.31536 -35.5404
ltibia 39.1892
lfoot -16.8303 10.5988
ltoes 4.52768
359
root 2.93878 16.7277 -0.158369 14.9711 4.85175 10.2504
lowerback -6.29577 1.56158 -0.176561
upperback -2.62339 2.21648 -6.87008
thorax 1.08442 1.10151 -6.90713
lowerneck -2.03425 14.3263 5.27318
upperneck 47.2792 23.8048 -1.77051
head 19.767 10.4692 2.17121
rclavicle -2.44008e-014 1.63003e-014
rhumerus -36.9041 3.4216 -93.1268
rradius 42.2224
rwrist -38.6164
rhand -7.65738 -49.8755
rfingers 7.12502
rthumb 18.2385 -79.0405
lclavicle -2.44008e-014 1.63003e-014
lhumerus -28.5079 -19.8764 82.0707
lradius 40.7315
lwrist 74.3555
lhand -37.0122 -14.9935
lfingers 7.12502
lthumb -10.0864 14.7447
rfemur -51.1234 24.3336 -5.70953
rtibia 73.8686
rfoot 4.24466 8.91136
rtoes -39.1513
lfemur -32.96 -6.31994 -35.498
ltibia 39.1622
lfoot -16.8565 10.565
ltoes 4.81753
360
root 2.9396 16.729 -0.157715 14.9771 4.82209 10.2371
lowerback -6.33876 1.60559 -0.121941
upperback -2.58686 2.27667 -6.88499
thorax 1.15612 1.13339 -6.94844
lowerneck -2.13422 14.2884 5.26107
upperneck 47.2918 23.7291 -1.73042
head 19.7828 10.4364 2.18874
rclavicle -1.48592e-014 -4.8901e-014
rhumerus -36.843 3.30554 -93.0862
rradius 42.1933
rwrist -38.6451
rhand -8.06915 -49.1606
rfingers 7.12502
rthumb 17.8423 -78.3621
lclavicle -1.48592e-014 -4.8901e-014
lhumerus -28.4479 -19.9635 82.0865
lradius 40.7252
lwrist 74.333
lhand -37.3638 -14.7911
lfingers 7.12502
lthumb -10.4256 14.9304
rfemur -51.1403 24.3593 -5.72659
rtibia 73.8434
rfoot 3.73643 9.41951
rtoes -41.0269
lfemur -32.9501 -6.31245 -35.4885
ltibia 39.1177
lfoot -16.8487 10.5271
ltoes 5.13628
361
root 2.94139 16.7295 -0.155977 14.9982 4.76638 10.3284
lowerback -6.37218 1.63735 -0.178464
upperback -2.58286 2.32522 -6.92855
thorax 1.18433 1.15862 -6.95788
lowerneck -2.08157 14.2483 5.33761
upperneck 47.2626 23.6702 -1.78365
head 19.7733 10.4238 2.13806
rclavicle -1.799e-014 7.95139e-015
rhumerus -36.9051 3.19607 -93.0673
rradius 42.1796
rwrist -38.6567
rhand -8.47621 -48.7133
rfingers 7.12502
rthumb 17.4506 -77.95
lclavicle -1.799e-014 7.95139e-015
lhumerus -28.503 -20.0582 82.1192
lradius 40.7796
lwrist 74.3368
lhand -37.8417 -14.2929
lfingers 7.12502
lthumb -10.8866 15.4049
rfemur -51.1719 24.354 -5.86961
rtibia 73.8286
rfoot 3.23541 9.91986
rtoes -42.5187
lfemur -32.9255 -6.32059 -35.6023
ltibia 39.0581
lfoot -16.8077 10.5797
ltoes 4.93518
362
root 2.94102 16.7288 -0.156689 15.0355 4.77063 10.489
lowerback -6.4276 1.62062 -0.310491
upperback -2.55614 2.31577 -6.9798
thorax 1.23882 1.15548 -6.93586
lowerneck -2.04798 14.2316 5.43851
upperneck 47.2487 23.68 -1.89834
head 19.8064 10.4306 2.07473
rclavicle 1.69961e-014 1.86858e-014
rhumerus -36.883 3.14738 -93.0542
rradius 42.1756
rwrist -38.5748
rhand -8.41704 -48.7771
rfingers 7.12502
rthumb 17.5075 -78.0087
lclavicle 1.69961e-014 1.86858e-014
lhumerus -28.4301 -20.0323 82.0959
lradius 40.7648
lwrist 74.3335
lhand -37.6257 -14.0806
lfingers 7.12502
lthumb -10.6782 15.6281
rfemur -51.1817 24.2602 -6.05417
rtibia 73.8263
rfoot 3.18085 9.9934
rtoes -42.6903
lfemur -32.9127 -6.35462 -35.7756
ltibia 39.0103
lfoot -16.7692 10.6036
ltoes 4.71369
